<?xml version="1.0" encoding="UTF-8" standalone="no"?>
<!-- Created with Inkscape (http://www.inkscape.org/) -->
<!-- ClipArt by Arvin61r58 (http://openclipart.org/user-detail/Arvin61r58) -->
<!-- ClipArt by liftarn (https://openclipart.org/user-detail/liftarn) -->

<svg
   xmlns:dc="http://purl.org/dc/elements/1.1/"
   xmlns:cc="http://creativecommons.org/ns#"
   xmlns:rdf="http://www.w3.org/1999/02/22-rdf-syntax-ns#"
   xmlns:svg="http://www.w3.org/2000/svg"
   xmlns="http://www.w3.org/2000/svg"
   version="1.1"
   id="svg13097"
   viewBox="0 0 192.12512 484.32606"
   height="136.68758mm"
   width="54.221977mm">
  <title
     id="title7008">Dripping Slime</title>
  <defs
     id="defs13099">
    <filter
       height="1.04"
       width="1.1000000000000001"
       x="-0.050000000000000003"
       y="-0.02"
       id="filter6988"
       style="color-interpolation-filters:sRGB;">
      <feGaussianBlur
         id="feGaussianBlur6990"
         result="result0"
         in="SourceGraphic"
         stdDeviation="6" />
      <feDiffuseLighting
         id="feDiffuseLighting6992"
         result="result5"
         surfaceScale="4"
         diffuseConstant="1"
         lighting-color="rgb(255,255,255)">
        <feDistantLight
           id="feDistantLight6994"
           azimuth="235"
           elevation="45" />
      </feDiffuseLighting>
      <feComposite
         id="feComposite6996"
         operator="arithmetic"
         result="fbSourceGraphic"
         in="result5"
         in2="SourceGraphic"
         k1="1.4" />
      <feGaussianBlur
         id="feGaussianBlur6998"
         stdDeviation="6"
         in="fbSourceGraphic"
         result="result0" />
      <feSpecularLighting
         id="feSpecularLighting7000"
         in="result0"
         result="result1"
         lighting-color="rgb(226,255,141)"
         surfaceScale="4"
         specularConstant="1"
         specularExponent="25">
        <feDistantLight
           id="feDistantLight7002"
           elevation="45"
           azimuth="235" />
      </feSpecularLighting>
      <feComposite
         id="feComposite7004"
         result="result4"
         in2="result1"
         in="fbSourceGraphic"
         operator="arithmetic"
         k2="1"
         k3="1" />
      <feComposite
         id="feComposite7006"
         in="result4"
         in2="SourceGraphic"
         result="result2"
         operator="in" />
    </filter>
  </defs>
  <metadata
     id="metadata13102">
    <rdf:RDF>
      <cc:Work
         rdf:about="">
        <dc:format>image/svg+xml</dc:format>
        <dc:type
           rdf:resource="http://purl.org/dc/dcmitype/StillImage" />
        <dc:title>Dripping Slime</dc:title>
        <dc:creator>
          <cc:Agent>
            <dc:title>Arvin61r58</dc:title>
          </cc:Agent>
        </dc:creator>
        <dc:publisher>
          <cc:Agent>
            <dc:title>Openclipart.org</dc:title>
          </cc:Agent>
        </dc:publisher>
        <dc:identifier>https://openclipart.org/</dc:identifier>
        <dc:source>https://openclipart.org/user-detail/Arvin61r58</dc:source>
        <dc:contributor>
          <cc:Agent>
            <dc:title>liftarn (https://openclipart.org/detail/234958/dripping-frame)

D.C.M. (http://digitalcomicmuseum.com/preview/index.php?did=8599&amp;page=24)</dc:title>
          </cc:Agent>
        </dc:contributor>
        <dc:description>dripping slime</dc:description>
        <dc:subject>
          <rdf:Bag>
            <rdf:li>slime</rdf:li>
            <rdf:li>dripping</rdf:li>
            <rdf:li></rdf:li>
          </rdf:Bag>
        </dc:subject>
        <cc:license
           rdf:resource="http://creativecommons.org/publicdomain/zero/1.0/" />
      </cc:Work>
      <cc:License
         rdf:about="http://creativecommons.org/publicdomain/zero/1.0/">
        <cc:permits
           rdf:resource="http://creativecommons.org/ns#Reproduction" />
        <cc:permits
           rdf:resource="http://creativecommons.org/ns#Distribution" />
        <cc:permits
           rdf:resource="http://creativecommons.org/ns#DerivativeWorks" />
      </cc:License>
    </rdf:RDF>
  </metadata>
  <g
     transform="translate(-448.01745,-241.40356)"
     id="layer1">
    <g
       style="filter:url(#filter6988)"
       id="g6979">
      <path
         style="fill:#00b200;stroke:#006100;stroke-width:3;"
         d="m 510.96472,244.80395 c 52.93975,-0.0519 123.34572,0.26877 123.89648,0.81836 0.94031,0.93819 1.11125,38.81109 1.05469,233.87109 -0.57347,66.58992 1.58689,139.14074 -1.4961,201.54102 -0.51894,6.9494 -1.86636,10.35742 -4.09765,10.35742 -0.80316,0 -1.7255,1.24971 -2.04688,2.77734 -0.92274,4.38572 -1.99621,5.78531 -4.6914,6.11133 -3.70539,0.44814 -5.19107,-2.0724 -6.88282,-11.6875 -1.10545,-6.2827 -2.0276,-8.91081 -3.41211,-9.72265 -1.42794,-0.83729 -2.00974,-0.79982 -2.35546,0.15039 -0.68024,1.86981 -2.2705,1.53617 -4.23243,-0.88672 -2.18826,-2.70246 -5.888,-1.80587 -6.75195,1.63672 -0.59984,2.38996 -2.98939,4.08996 -3.83203,2.72656 -0.24695,-0.39968 -0.73624,-3.44771 -1.08984,-6.77344 -0.8082,-7.60065 -3.34417,-13.01188 -6.29297,-13.43164 -2.29058,-0.32593 -2.35778,-0.18692 -5.04297,10.74219 -1.30169,5.29816 -2.77535,3.86378 -3.61719,-3.51953 -0.54197,-4.75255 -1.37495,-7.34776 -2.77734,-8.6543 -1.10192,-1.02656 -2.00391,-2.98638 -2.00391,-4.35351 0,-2.92264 -3.2522,-6.5254 -5.89062,-6.5254 -1.01808,0 -3.31198,1.81902 -5.09766,4.04102 -1.78558,2.222 -3.6036,4.03906 -4.03906,4.03906 -0.4355,0 -1.39451,-1.12825 -2.13282,-2.50781 -0.73831,-1.37956 -2.09063,-2.74592 -3.00195,-3.03516 -0.91133,-0.28923 -2.21342,-2.06999 -2.89648,-3.95898 -2.59853,-7.18593 -6.74466,-5.31614 -8.21289,3.70508 -0.51056,3.13688 -1.43307,6.64655 -2.05078,7.80078 -0.61783,1.15433 -1.50439,5.5021 -1.97071,9.66016 -0.93021,8.29463 -2.45383,11.3299 -4.73633,9.43554 -0.75952,-0.63034 -1.38671,-2.79549 -1.38671,-4.81054 -0.007,-4.51299 -1.79787,-11.23829 -2.99219,-11.23829 -0.48531,0 -1.18086,-1.36279 -1.54688,-3.02929 -0.72347,-3.29371 -4.12767,-4.28768 -5.1914,-1.51563 -0.81083,2.11302 -2.26265,1.8896 -4.33203,-0.66601 -3.87598,-4.78659 -7.32984,2.17736 -7.84766,15.8164 -0.42693,11.24665 -1.91397,17.67383 -4.08789,17.67383 -0.79265,0 -1.94525,-1.33295 -2.56055,-2.96289 -1.47954,-3.9199 -4.23084,-4.56814 -6.25781,-1.47461 -0.87153,1.33007 -2.26727,2.41797 -3.09961,2.41797 -1.21958,0 -1.48448,-1.433 -1.36914,-7.38867 0.181,-9.35108 -1.95182,-14.33655 -5.72852,-13.38867 -2.31532,0.58116 -2.45117,0.36924 -2.45117,-3.79297 0,-4.37683 -2.12932,-7.75 -4.89258,-7.75 -1.77124,0 -4.01222,5.79095 -4.69336,12.1289 -0.78397,7.29352 -1.61835,8.63273 -4.43554,7.125 -1.89183,-1.01252 -2.28113,-0.83037 -3.15821,1.47657 -0.55025,1.44723 -1,3.76719 -1,5.15625 0,3.50197 -1.75416,6.43359 -3.84961,6.43359 -1.07333,0 -2.53459,1.64676 -3.75195,4.22852 -2.08484,4.42148 -5.89346,7.73007 -6.94336,6.03125 -0.32916,-0.53247 -0.58741,-2.03625 -0.57226,-3.3418 0.0149,-1.30551 -0.23199,-49.41395 -0.54883,-106.9082 -0.57257,-103.87734 -0.72598,-314.79276 -0.24219,-333.47071 0.13907,-5.37097 0.62209,-10.13298 1.07227,-10.58203 0.32952,-0.32869 25.80453,-0.49425 57.56836,-0.52539 z"
         id="path4234" />
      <path
         style="fill:#00b200;fill-opacity:1;stroke:#006100;stroke-opacity:1;stroke-width:3;"
         d="m 558.32214,669.60473 c 0.73075,0.0895 1.38131,2.35114 1.94726,6.78125 0.39202,3.06883 1.23238,7.05135 1.86719,8.84961 2.85375,8.08327 -1.83713,15.30209 -7.03516,10.82617 -1.44919,-1.24782 -1.68074,-2.17947 -1.62304,-6.50976 0.0368,-2.77925 0.38667,-5.98198 0.77734,-7.11719 0.39075,-1.13521 1.13214,-4.09806 1.64649,-6.58398 0.87998,-4.25296 1.68918,-6.3356 2.41992,-6.2461 z"
         id="path4225" />
      <path
         style="fill:#00b200;fill-opacity:1;stroke:#006100;stroke-opacity:1;stroke-width:3;"
         d="m 480.33437,691.95049 c 0.25024,-0.0299 0.4948,0.13097 0.72851,0.46484 0.23371,0.33387 0.45632,0.83998 0.66016,1.50195 0.40768,1.32394 0.74301,3.26916 0.95117,5.69141 0.14348,1.66972 0.36476,3.27867 0.60742,4.52734 0.24267,1.24868 0.50573,2.13659 0.73047,2.36133 0.22473,0.22474 0.42996,0.79624 0.57813,1.53516 0.14816,0.73892 0.24023,1.64476 0.24023,2.54101 0,1.23012 -0.11378,2.15764 -0.40039,2.95118 -0.28661,0.79353 -0.74653,1.45356 -1.44141,2.14843 -1.04655,1.04655 -1.67921,1.59036 -2.27343,1.70313 -0.29712,0.0564 -0.58521,0.006 -0.91016,-0.14453 -0.32495,-0.1504 -0.68609,-0.40085 -1.13281,-0.74024 -0.6795,-0.51624 -1.2184,-1.17973 -1.61328,-1.97461 -0.39489,-0.79487 -0.64566,-1.71937 -0.75196,-2.7539 -0.10629,-1.03453 -0.0671,-2.18081 0.11914,-3.41602 0.18629,-1.23521 0.51911,-2.56012 1.00196,-3.95703 0.42773,-1.2375 1.05839,-4.38707 1.40039,-6.99805 0.34199,-2.61097 0.82515,-4.95022 1.07422,-5.19922 0.14498,-0.14499 0.28865,-0.22508 0.43164,-0.24218 z"
         id="path4180" />
      <path
         style="fill:#00b200;fill-opacity:1;stroke:#006100;stroke-opacity:1;stroke-width:3;"
         d="m 542.29479,688.28442 c 0.25245,0 0.47654,0.10363 0.68164,0.3418 0.20511,0.23816 0.39129,0.60974 0.56836,1.14453 0.35415,1.06957 0.67148,2.79165 1.0293,5.39843 0.23557,1.71601 0.86977,4.92182 1.4082,7.12305 0.36945,1.51028 0.63683,2.75022 0.79688,3.79883 0.16004,1.04861 0.21298,1.90572 0.15039,2.65039 -0.0626,0.74467 -0.24061,1.37615 -0.53906,1.97461 -0.29846,0.59846 -0.71807,1.16348 -1.26563,1.77344 -0.56244,0.62655 -1.03428,1.10757 -1.45898,1.45117 -0.42471,0.3436 -0.8014,0.54875 -1.17188,0.62695 -0.37048,0.0782 -0.73501,0.029 -1.13476,-0.14062 -0.39976,-0.16967 -0.83513,-0.45939 -1.34766,-0.85938 -0.44027,-0.34359 -0.77975,-0.90885 -1.01758,-1.68554 -0.23782,-0.7767 -0.37347,-1.7653 -0.4082,-2.95313 -0.0695,-2.37566 0.2669,-5.55112 1.01367,-9.43945 0.54953,-2.8616 1.16394,-6.55221 1.36524,-8.20313 0.10429,-0.8554 0.29938,-1.60601 0.53711,-2.14258 0.23768,-0.53656 0.51798,-0.85937 0.79296,-0.85937 z"
         id="path4216" />
      <path
         style="fill:#00b200;fill-opacity:1;stroke:#006100;stroke-opacity:1;stroke-width:3;"
         d="m 575.50573,697.38012 c 0.65544,-0.14074 1.59348,1.11967 2.4668,3.69922 0.6975,2.06025 1.92428,5.26408 2.72656,7.11914 2.16495,5.00555 1.94182,7.75986 -0.75195,9.22461 -2.8056,1.52558 -3.39022,1.50892 -4.95899,-0.14062 -1.0797,-1.13529 -1.20557,-2.32864 -0.80859,-7.68946 0.25845,-3.48993 0.47261,-7.67622 0.47461,-9.30273 0.003,-1.84426 0.34177,-2.8007 0.85156,-2.91016 z"
         id="path4176" />
      <path
         style="fill:#00b200;fill-opacity:1;stroke:#006100;stroke-opacity:1;stroke-width:3;"
         d="m 598.53307,698.77856 c 0.1116,-0.003 0.23621,0.0111 0.375,0.0391 0.91838,0.18454 1.74346,1.9823 2.8125,6.12891 0.83205,3.22746 1.75739,6.25372 2.05469,6.72656 0.29738,0.47284 0.73664,2.78153 0.97657,5.13086 0.41241,4.03767 0.3293,4.32303 -1.51368,5.19922 -2.26717,1.07785 -4.10833,1.16608 -5.47461,0.26172 -1.7232,-1.14077 -2.17897,-5.00227 -1.17187,-9.89844 0.53123,-2.58254 0.97769,-6.74744 0.99219,-9.25391 0.0197,-3.40711 0.16805,-4.31058 0.94921,-4.33398 z"
         id="path4174" />
      <path
         style="fill:#00b200;fill-opacity:1;stroke:#006100;stroke-opacity:1;stroke-width:3;"
         d="m 499.63659,700.60083 c 0.31492,0.024 0.62745,0.32229 0.90039,0.89257 0.27295,0.57029 0.50679,1.4126 0.66602,2.52344 0.26603,1.85625 0.85777,4.725 1.3164,6.375 0.58658,2.11035 0.84951,3.83138 0.79102,5.0918 -0.0292,0.63021 -0.13887,1.14621 -0.32813,1.53711 -0.18925,0.3909 -0.4582,0.65731 -0.80664,0.79101 -1.09509,0.42023 -2.2385,0.53625 -3.26367,0.375 -0.51258,-0.0806 -0.99641,-0.23101 -1.42969,-0.44726 -0.43328,-0.21625 -0.81614,-0.49837 -1.1289,-0.84375 -0.39016,-0.43114 -0.68447,-0.94615 -0.88282,-1.52149 -0.19834,-0.57533 -0.30058,-1.21074 -0.30664,-1.88476 -0.006,-0.67402 0.0848,-1.38609 0.27149,-2.11328 0.18672,-0.72719 0.46964,-1.47023 0.84961,-2.20508 0.6456,-1.24853 1.41505,-3.67681 1.70898,-5.39844 0.18514,-1.08455 0.4391,-1.89025 0.72461,-2.41797 0.28551,-0.52772 0.60306,-0.77795 0.91797,-0.7539 z"
         id="path4172" />
    </g>
  </g>
</svg>
